HIERARCHY
ROOT Hips
{
	OFFSET 0.000000 71.427986 0.000000
	CHANNELS 6 Xposition Yposition Zposition Xrotation Yrotation Zrotation
	JOINT Pelvis
	{
		OFFSET 0.000000 0.000000 0.000000
		CHANNELS 3 Xrotation Yrotation Zrotation
		JOINT LeftUpLeg
		{
			OFFSET 6.797100 -2.508499 -1.318700
			CHANNELS 3 Xrotation Yrotation Zrotation
			JOINT LeftLeg
			{
				OFFSET 0.069008 -29.241863 0.690200
				CHANNELS 3 Xrotation Yrotation Zrotation
				JOINT LeftFoot
				{
					OFFSET -0.069008 -29.568123 -0.266800
					CHANNELS 3 Xrotation Yrotation Zrotation
					JOINT LeftToeBase
					{
						OFFSET 3.145500 -8.631000 16.059900
						CHANNELS 3 Xrotation Yrotation Zrotation
						End Site
						{
							OFFSET 0.000000 18.501587 0.000000
						}
					}
				}
			}
			JOINT Left_ShortSleeve
			{
				OFFSET 0.265923 -10.480953 1.153800
				CHANNELS 3 Xrotation Yrotation Zrotation
				End Site
				{
					OFFSET 1.725763 19.823879 0.000000
				}
			}
		}
		JOINT RightUpLeg
		{
			OFFSET -6.797100 -2.508499 -1.318700
			CHANNELS 3 Xrotation Yrotation Zrotation
			JOINT RightLeg
			{
				OFFSET -0.082453 -29.241932 0.688000
				CHANNELS 3 Xrotation Yrotation Zrotation
				JOINT RightFoot
				{
					OFFSET 0.082453 -29.568058 -0.264600
					CHANNELS 3 Xrotation Yrotation Zrotation
					JOINT RightToeBase
					{
						OFFSET -3.115300 -8.682800 16.113400
						CHANNELS 3 Xrotation Yrotation Zrotation
						End Site
						{
							OFFSET 0.000000 18.567114 0.000000
						}
					}
				}
			}
			JOINT Right_ShortSleeve
			{
				OFFSET -0.265923 -10.480953 1.153800
				CHANNELS 3 Xrotation Yrotation Zrotation
				End Site
				{
					OFFSET -1.725766 19.823910 0.000000
				}
			}
		}
	}
	JOINT Spine
	{
		OFFSET 0.000000 13.368103 0.470500
		CHANNELS 3 Xrotation Yrotation Zrotation
		JOINT Spine1
		{
			OFFSET 0.147000 13.837402 0.538800
			CHANNELS 3 Xrotation Yrotation Zrotation
			JOINT Spine2
			{
				OFFSET 0.168000 16.242897 -1.435500
				CHANNELS 3 Xrotation Yrotation Zrotation
				JOINT Neck
				{
					OFFSET 0.217200 18.631500 -1.679100
					CHANNELS 3 Xrotation Yrotation Zrotation
					JOINT Head
					{
						OFFSET 0.000000 6.599396 1.385900
						CHANNELS 3 Xrotation Yrotation Zrotation
						JOINT Hat
						{
							OFFSET -0.532200 27.220596 -10.096100
							CHANNELS 3 Xrotation Yrotation Zrotation
							End Site
							{
								OFFSET 0.000000 22.029861 0.000000
							}
						}
						JOINT HairD
						{
							OFFSET -10.777400 17.437393 -1.325900
							CHANNELS 3 Xrotation Yrotation Zrotation
							JOINT HairD1
							{
								OFFSET -3.290299 -11.051193 1.062200
								CHANNELS 3 Xrotation Yrotation Zrotation
								End Site
								{
									OFFSET 0.000000 11.579437 0.000000
								}
							}
						}
						JOINT HairB
						{
							OFFSET -10.777400 17.437393 1.467900
							CHANNELS 3 Xrotation Yrotation Zrotation
							JOINT HairB1
							{
								OFFSET -1.561200 -12.956299 3.590200
								CHANNELS 3 Xrotation Yrotation Zrotation
								End Site
								{
									OFFSET 0.000000 13.534866 0.000000
								}
							}
						}
						JOINT HairA
						{
							OFFSET 9.713100 17.437393 1.467900
							CHANNELS 3 Xrotation Yrotation Zrotation
							JOINT HairA1
							{
								OFFSET 1.561200 -12.956299 3.590200
								CHANNELS 3 Xrotation Yrotation Zrotation
								End Site
								{
									OFFSET 0.000000 13.534866 0.000000
								}
							}
						}
						JOINT HairC
						{
							OFFSET 9.713100 17.437393 -1.325900
							CHANNELS 3 Xrotation Yrotation Zrotation
							JOINT HairC1
							{
								OFFSET 3.290300 -11.051193 1.062200
								CHANNELS 3 Xrotation Yrotation Zrotation
								End Site
								{
									OFFSET 0.000000 11.579437 0.000000
								}
							}
						}
					}
				}
				JOINT LeftShoulder
				{
					OFFSET 5.101800 15.108002 -2.763700
					CHANNELS 3 Xrotation Yrotation Zrotation
					JOINT LeftArm
					{
						OFFSET 9.825497 2.506317 -1.597400
						CHANNELS 3 Xrotation Yrotation Zrotation
						JOINT LeftForeArm
						{
							OFFSET 21.966244 0.000000 0.000000
							CHANNELS 3 Xrotation Yrotation Zrotation
							JOINT LeftHand
							{
								OFFSET 33.879036 0.000000 0.000000
								CHANNELS 3 Xrotation Yrotation Zrotation
								JOINT LeftHandThumb1
								{
									OFFSET 6.715286 -2.359680 3.363841
									CHANNELS 3 Xrotation Yrotation Zrotation
									JOINT LeftHandThumb2
									{
										OFFSET 2.507072 -1.447464 1.447461
										CHANNELS 3 Xrotation Yrotation Zrotation
										JOINT LeftHandThumb3
										{
											OFFSET 2.898338 -1.673355 1.673357
											CHANNELS 3 Xrotation Yrotation Zrotation
											End Site
											{
												OFFSET -0.295959 3.727692 -0.131651
											}
										}
									}
								}
								JOINT LeftHandIndex1
								{
									OFFSET 14.190811 -0.254547 3.840278
									CHANNELS 3 Xrotation Yrotation Zrotation
									JOINT LeftHandIndex2
									{
										OFFSET 3.551727 0.000000 -0.000000
										CHANNELS 3 Xrotation Yrotation Zrotation
										JOINT LeftHandIndex3
										{
											OFFSET 2.894196 0.000000 0.000000
											CHANNELS 3 Xrotation Yrotation Zrotation
											End Site
											{
												OFFSET -1.000603 2.690872 0.366626
											}
										}
									}
								}
								JOINT LeftHandMiddle1
								{
									OFFSET 13.776489 0.000000 0.000000
									CHANNELS 3 Xrotation Yrotation Zrotation
									JOINT LeftHandMiddle2
									{
										OFFSET 3.438232 0.000000 0.000000
										CHANNELS 3 Xrotation Yrotation Zrotation
										JOINT LeftHandMiddle3
										{
											OFFSET 3.691551 0.000000 0.000000
											CHANNELS 3 Xrotation Yrotation Zrotation
											End Site
											{
												OFFSET -1.082298 3.499527 0.457670
											}
										}
									}
								}
								JOINT LeftHandRing1
								{
									OFFSET 13.966164 -0.268127 -3.067488
									CHANNELS 3 Xrotation Yrotation Zrotation
									JOINT LeftHandRing2
									{
										OFFSET 3.162567 0.000000 0.000000
										CHANNELS 3 Xrotation Yrotation Zrotation
										JOINT LeftHandRing3
										{
											OFFSET 3.324348 0.000000 0.000000
											CHANNELS 3 Xrotation Yrotation Zrotation
											End Site
											{
												OFFSET -0.861900 3.184998 0.405154
											}
										}
									}
								}
								JOINT LeftHandPinky1
								{
									OFFSET 13.131393 -0.168503 -5.746925
									CHANNELS 3 Xrotation Yrotation Zrotation
									JOINT LeftHandPinky2
									{
										OFFSET 2.849182 0.000000 0.000000
										CHANNELS 3 Xrotation Yrotation Zrotation
										JOINT LeftHandPinky3
										{
											OFFSET 2.805038 0.000000 0.000000
											CHANNELS 3 Xrotation Yrotation Zrotation
											End Site
											{
												OFFSET -0.882500 2.642609 0.325652
											}
										}
									}
								}
							}
							JOINT Left_Sleeve
							{
								OFFSET 6.592125 -0.646545 0.805568
								CHANNELS 3 Xrotation Yrotation Zrotation
								End Site
								{
									OFFSET -0.000179 20.275787 -0.000000
								}
							}
						}
					}
				}
				JOINT RightShoulder
				{
					OFFSET -5.731700 15.108002 -2.763700
					CHANNELS 3 Xrotation Yrotation Zrotation
					JOINT RightArm
					{
						OFFSET -9.825497 2.506317 -1.597400
						CHANNELS 3 Xrotation Yrotation Zrotation
						JOINT RightForeArm
						{
							OFFSET -21.966242 0.000000 0.000000
							CHANNELS 3 Xrotation Yrotation Zrotation
							JOINT RightHand
							{
								OFFSET -33.879032 0.000000 0.000000
								CHANNELS 3 Xrotation Yrotation Zrotation
								JOINT RightHandThumb1
								{
									OFFSET -6.715286 -2.359680 3.363841
									CHANNELS 3 Xrotation Yrotation Zrotation
									JOINT RightHandThumb2
									{
										OFFSET -2.507072 -1.447464 1.447461
										CHANNELS 3 Xrotation Yrotation Zrotation
										JOINT RightHandThumb3
										{
											OFFSET -2.898338 -1.673355 1.673357
											CHANNELS 3 Xrotation Yrotation Zrotation
											End Site
											{
												OFFSET 0.295959 3.727692 -0.131651
											}
										}
									}
								}
								JOINT RightHandIndex1
								{
									OFFSET -14.190811 -0.254547 3.840278
									CHANNELS 3 Xrotation Yrotation Zrotation
									JOINT RightHandIndex2
									{
										OFFSET -3.551727 0.000000 -0.000000
										CHANNELS 3 Xrotation Yrotation Zrotation
										JOINT RightHandIndex3
										{
											OFFSET -2.894196 0.000000 0.000000
											CHANNELS 3 Xrotation Yrotation Zrotation
											End Site
											{
												OFFSET 1.000603 2.690872 0.366626
											}
										}
									}
								}
								JOINT RightHandMiddle1
								{
									OFFSET -13.776489 0.000000 0.000000
									CHANNELS 3 Xrotation Yrotation Zrotation
									JOINT RightHandMiddle2
									{
										OFFSET -3.438232 0.000000 0.000000
										CHANNELS 3 Xrotation Yrotation Zrotation
										JOINT RightHandMiddle3
										{
											OFFSET -3.691551 0.000000 0.000000
											CHANNELS 3 Xrotation Yrotation Zrotation
											End Site
											{
												OFFSET 1.082298 3.499527 0.457670
											}
										}
									}
								}
								JOINT RightHandRing1
								{
									OFFSET -13.966164 -0.268127 -3.067488
									CHANNELS 3 Xrotation Yrotation Zrotation
									JOINT RightHandRing2
									{
										OFFSET -3.162567 0.000000 0.000000
										CHANNELS 3 Xrotation Yrotation Zrotation
										JOINT RightHandRing3
										{
											OFFSET -3.324348 0.000000 0.000000
											CHANNELS 3 Xrotation Yrotation Zrotation
											End Site
											{
												OFFSET 0.861900 3.184998 0.405154
											}
										}
									}
								}
								JOINT RightHandPinky1
								{
									OFFSET -13.131393 -0.168503 -5.746925
									CHANNELS 3 Xrotation Yrotation Zrotation
									JOINT RightHandPinky2
									{
										OFFSET -2.849182 0.000000 0.000000
										CHANNELS 3 Xrotation Yrotation Zrotation
										JOINT RightHandPinky3
										{
											OFFSET -2.805038 0.000000 0.000000
											CHANNELS 3 Xrotation Yrotation Zrotation
											End Site
											{
												OFFSET 0.882500 2.642609 0.325652
											}
										}
									}
								}
							}
							JOINT Right_Sleeve
							{
								OFFSET -6.592125 -0.646545 0.805568
								CHANNELS 3 Xrotation Yrotation Zrotation
								End Site
								{
									OFFSET 0.000179 20.275787 -0.000000
								}
							}
						}
					}
				}
				JOINT Bind_Right_JacketString
				{
					OFFSET -3.534800 11.969597 7.200700
					CHANNELS 3 Xrotation Yrotation Zrotation
					JOINT Bind_Right_JacketString1
					{
						OFFSET -0.319900 -6.102600 2.794100
						CHANNELS 3 Xrotation Yrotation Zrotation
						End Site
						{
							OFFSET 0.000000 6.719452 0.000000
						}
					}
				}
				JOINT Bind_Left_JacketString
				{
					OFFSET 2.904800 11.969597 7.200700
					CHANNELS 3 Xrotation Yrotation Zrotation
					JOINT Bind_Left_JacketString1
					{
						OFFSET 0.364800 -5.904503 3.186800
						CHANNELS 3 Xrotation Yrotation Zrotation
						End Site
						{
							OFFSET 0.000000 6.719513 0.000000
						}
					}
				}
				JOINT HairE
				{
					OFFSET 5.915200 17.612701 -11.592200
					CHANNELS 3 Xrotation Yrotation Zrotation
					JOINT HairE1
					{
						OFFSET 0.289200 -7.171898 -1.284500
						CHANNELS 3 Xrotation Yrotation Zrotation
						End Site
						{
							OFFSET 0.000000 7.291756 0.000000
						}
					}
				}
				JOINT HairF
				{
					OFFSET -0.864800 17.612701 -11.592200
					CHANNELS 3 Xrotation Yrotation Zrotation
					JOINT HairF1
					{
						OFFSET 0.000000 -14.087097 -2.127501
						CHANNELS 3 Xrotation Yrotation Zrotation
						End Site
						{
							OFFSET 0.000000 14.246841 0.000000
						}
					}
				}
				JOINT HairG
				{
					OFFSET -8.087700 17.612701 -11.592200
					CHANNELS 3 Xrotation Yrotation Zrotation
					JOINT HairG1
					{
						OFFSET -0.293600 -6.081398 -0.910100
						CHANNELS 3 Xrotation Yrotation Zrotation
						End Site
						{
							OFFSET 0.000000 6.156120 0.000000
						}
					}
				}
			}
		}
	}
	JOINT Pouch
	{
		OFFSET 0.000000 4.394501 10.847300
		CHANNELS 3 Xrotation Yrotation Zrotation
		End Site
		{
			OFFSET 0.000000 21.880577 0.000000
		}
	}
	JOINT Bag
	{
		OFFSET -13.229000 4.813004 -0.593300
		CHANNELS 3 Xrotation Yrotation Zrotation
		End Site
		{
			OFFSET 0.000000 21.880577 0.000000
		}
	}
	JOINT OccupyGuyFacialAnim_Joint
	{
		OFFSET 1.000000 -70.206398 -1.655000
		CHANNELS 3 Xrotation Yrotation Zrotation
		End Site
		{
			OFFSET 0.000000 21.880577 0.000000
		}
	}
}
MOTION
Frames: 4
Frame Time: 0.016667
0.006961 56.962799 1.867630 7.467304 1.912206 -2.634807 0.000001 -0.000000 0.000000 23.212121 17.768809 5.098502 23.980490 -4.052854 7.883117 -48.600054 -1.381691 -2.134970 0.000000 -0.000000 -0.000001 -0.000002 -0.000000 0.000000 -59.524798 -2.540600 -0.617944 76.812772 -2.540713 -0.248804 -24.771798 3.076456 -2.912964 -0.000000 0.000000 -0.000000 -0.000001 -0.000000 -0.000000 1.526290 -1.616472 1.079247 4.463941 -2.897044 3.069452 4.470555 -2.960904 2.997961 -6.646406 2.329848 -0.789044 -22.799694 6.183981 9.466394 0.000000 0.000000 -0.000000 0.000000 0.000000 -0.000000 0.000000 0.000000 0.000000 0.000000 0.000000 -0.000000 -0.000001 -0.000000 -0.000000 0.000000 0.000000 -0.000000 -0.000001 -0.000000 -0.000000 0.000000 0.000000 -0.000000 0.000000 0.000000 -0.000000 -0.863855 7.389832 -0.025977 -11.563474 10.383919 -66.345514 0.000095 -115.180089 0.000107 -72.996212 -11.310944 -18.454683 2.694202 20.233086 14.029389 2.246556 5.062589 -0.344647 0.000001 -0.000000 0.000000 5.768265 6.881147 -88.058760 5.425110 5.835580 -85.818110 -0.000004 0.000001 -0.000002 -0.017668 7.177028 -79.088290 3.595319 5.400140 -67.288210 0.000005 0.000002 -0.000001 0.351612 7.858034 -86.242388 3.058243 5.143563 -61.447838 -0.000004 0.000000 -0.000000 -3.192644 8.750429 -83.420925 6.384942 5.826758 -95.244119 -0.000003 0.000001 -0.000001 0.000001 0.000001 -0.000001 0.518559 -7.917612 14.973081 -19.108971 0.823929 54.260006 0.000037 114.793883 -0.000042 -65.260928 9.926089 32.064723 2.274805 -18.433740 -12.204901 2.753458 -6.766203 -0.612010 0.000001 -0.000003 -0.000002 5.674726 -1.758892 87.252743 4.318604 -4.644855 85.826648 0.000002 -0.000002 0.000003 2.028909 -6.487566 78.554743 2.866361 -4.299798 67.363246 0.000005 0.000001 -0.000001 -1.327508 -6.487779 85.540190 2.437361 -4.095149 61.507172 0.000001 -0.000001 -0.000002 -13.485150 -6.858218 82.489588 5.081643 -4.637840 95.235056 -0.000001 0.000000 0.000004 0.000004 -0.000001 -0.000002 -0.000001 -0.000000 -0.000000 -0.000001 -0.000000 -0.000000 -0.000001 -0.000000 -0.000000 -0.000001 -0.000000 -0.000000 -0.000001 -0.000000 -0.000000 -0.000001 -0.000000 -0.000000 -0.000001 -0.000000 -0.000000 -0.000001 -0.000000 -0.000000 -0.000001 -0.000000 -0.000000 -0.000001 -0.000000 -0.000000 0.000001 -0.000000 0.000000 0.000001 -0.000000 0.000000 0.000001 -0.000000 0.000000 
0.128772 58.464745 2.157831 7.390628 3.801680 -1.810293 -0.000002 -0.000000 0.000000 21.180838 15.870057 4.531924 26.217673 -2.380562 9.274152 -44.099929 -1.151850 -2.719420 0.000001 0.000000 0.000000 0.000002 0.000001 0.000001 -56.655251 -2.419908 -1.995613 73.188127 -3.398909 -0.453357 -23.952280 3.043068 -2.946763 0.000000 0.000000 -0.000000 -0.000004 -0.000000 -0.000000 1.666184 -1.859960 1.051779 3.785098 -3.090957 2.685692 3.791148 -3.134330 2.617749 -6.142039 2.189227 -1.060332 -20.578865 4.977734 9.024682 0.000000 0.000000 -0.000001 0.000000 0.000000 -0.000001 0.000000 0.000000 -0.000001 0.000000 0.000000 -0.000001 0.000000 0.000000 -0.000000 0.000000 0.000000 -0.000001 0.000000 0.000000 -0.000000 0.000000 0.000000 -0.000001 0.000000 0.000000 -0.000001 -0.699217 6.301895 -0.123047 -14.747401 8.597199 -65.355082 0.000051 -113.772346 0.000060 -71.122821 -11.217050 -18.021020 2.956425 20.391917 13.868044 2.256788 5.074907 -0.335836 0.000002 0.000003 0.000002 5.832265 6.953419 -87.643669 5.383894 5.832415 -85.412656 -0.000000 -0.000001 -0.000000 0.075943 7.167641 -78.770543 3.574160 5.391274 -67.063039 0.000004 -0.000000 -0.000001 0.430385 7.837942 -85.961742 3.052583 5.140487 -61.384693 -0.000002 -0.000000 -0.000001 -3.123913 8.721511 -83.173495 6.386842 5.826570 -95.262964 0.000000 -0.000001 0.000003 0.000000 -0.000002 0.000001 0.413487 -7.788719 13.845017 -20.755797 2.647587 54.652486 0.000034 114.710322 -0.000035 -65.124911 9.634459 30.561647 2.414866 -18.861672 -12.282925 2.756564 -6.763769 -0.616807 0.000002 0.000004 0.000003 5.724090 -2.009617 86.044688 4.254322 -4.639724 85.032638 -0.000001 -0.000001 0.000004 2.223333 -6.492740 77.328192 2.805697 -4.274063 66.551840 -0.000000 -0.000000 -0.000001 -1.004168 -6.353157 83.832711 2.365597 -4.055462 60.497397 0.000001 0.000000 -0.000002 -13.015754 -6.850556 80.337696 4.970055 -4.646675 93.856655 0.000002 -0.000001 -0.000001 0.000001 0.000001 0.000001 -0.000001 0.000000 -0.000000 -0.000001 0.000000 0.000000 -0.000001 0.000000 -0.000000 -0.000001 0.000000 -0.000000 -0.000001 0.000000 -0.000000 -0.000001 0.000000 -0.000000 -0.000001 0.000000 -0.000000 -0.000001 0.000000 -0.000000 -0.000001 0.000000 -0.000000 -0.000001 0.000000 -0.000000 -0.000002 -0.000000 0.000000 -0.000002 -0.000000 0.000000 -0.000002 -0.000000 0.000000 
0.298042 60.203362 2.326835 7.044811 5.678023 -1.136835 -0.000000 -0.000000 -0.000000 17.120434 13.876474 3.991428 31.624807 1.415159 11.303599 -38.334888 -0.395284 -4.902113 0.000002 0.000000 0.000000 0.000002 -0.000000 -0.000000 -53.093174 -2.477935 -3.171111 68.496730 -4.284514 -0.670394 -22.487373 3.013644 -3.085432 0.000000 -0.000000 0.000000 -0.000004 -0.000000 -0.000000 2.295759 -1.961418 1.463491 3.099219 -3.162404 2.168580 3.091625 -3.180354 2.120447 -5.647368 2.000597 -1.393997 -18.366983 3.484120 8.410583 -0.000001 -0.000000 -0.000000 -0.000001 -0.000000 -0.000000 -0.000001 -0.000000 -0.000000 -0.000001 -0.000000 -0.000000 0.000000 0.000000 -0.000000 -0.000001 -0.000000 -0.000000 0.000000 0.000000 -0.000000 -0.000001 -0.000000 -0.000000 -0.000001 -0.000000 -0.000000 -0.472604 4.837149 -0.286772 -18.246985 6.118551 -64.201128 -0.000041 -111.959272 -0.000063 -70.528342 -11.069059 -17.673015 3.052296 20.083148 13.631513 2.282474 5.105835 -0.313568 0.000002 0.000003 0.000000 5.739265 6.804744 -86.402392 5.292524 5.824402 -84.512936 0.000001 0.000001 -0.000002 0.063403 7.084368 -77.817821 3.517056 5.366861 -66.453772 0.000004 0.000001 0.000003 0.429270 7.766129 -85.148546 3.012634 5.118581 -60.938012 0.000002 0.000001 -0.000003 -3.111957 8.578954 -82.473448 6.327457 5.831709 -94.678204 0.000001 -0.000001 0.000003 0.000002 -0.000001 0.000001 0.323425 -7.582996 12.788908 -22.735710 4.589344 55.000515 0.000105 114.546835 -0.000113 -66.009250 9.599541 29.265892 2.396671 -19.071075 -12.360058 2.764308 -6.757704 -0.628895 -0.000002 -0.000001 0.000002 5.394721 -1.676067 84.200229 4.152325 -4.629762 83.770153 0.000001 -0.000000 0.000000 2.177243 -6.430872 75.372606 2.732562 -4.241675 65.566503 0.000004 0.000001 -0.000002 -0.872500 -6.186891 81.800169 2.288842 -4.011181 59.406192 -0.000001 0.000001 -0.000001 -12.578773 -6.518151 78.150382 4.833905 -4.653807 92.177439 0.000001 0.000000 -0.000001 0.000002 0.000001 0.000000 -0.000001 0.000000 -0.000001 0.000001 0.000000 -0.000000 -0.000001 0.000000 -0.000000 -0.000001 0.000000 -0.000000 -0.000001 0.000000 -0.000001 0.000001 0.000000 -0.000000 -0.000001 0.000000 -0.000000 -0.000001 0.000000 -0.000000 -0.000001 0.000000 -0.000001 0.000001 0.000000 -0.000000 -0.000000 -0.000000 -0.000000 -0.000000 -0.000000 -0.000000 -0.000000 -0.000000 -0.000000 
0.488390 62.067093 2.362635 6.505837 7.447517 -0.557913 0.000000 -0.000001 0.000000 10.514689 11.637211 4.039680 40.348069 7.235007 12.611044 -29.275533 0.513909 -9.131087 0.000002 -0.000000 0.000000 0.000000 -0.000004 0.000000 -49.113858 -2.638302 -3.994411 62.995415 -5.271901 -0.967910 -20.440458 3.026100 -3.537508 0.000000 -0.000000 0.000001 -0.000000 -0.000000 -0.000001 3.189971 -1.918094 1.978859 2.446619 -3.124232 1.713961 2.423725 -3.115747 1.695901 -5.047374 1.811920 -1.815772 -16.188800 1.802793 7.789923 -0.000000 0.000000 0.000000 -0.000000 0.000000 0.000000 -0.000000 0.000000 0.000001 -0.000000 0.000000 0.000000 -0.000000 0.000000 0.000000 -0.000000 0.000000 0.000000 -0.000000 0.000000 0.000000 -0.000000 0.000000 0.000000 -0.000000 0.000000 0.000000 -0.203424 3.122969 -0.566955 -21.904183 3.029750 -63.035037 0.000106 -109.690297 0.000134 -71.153441 -10.857870 -17.502978 3.052063 19.424583 13.311499 2.318667 5.149488 -0.282192 -0.000003 0.000001 0.000001 5.508330 6.540138 -84.405005 5.160456 5.810284 -83.210036 -0.000002 0.000001 -0.000002 -0.028268 6.934530 -76.285816 3.430207 5.328351 -65.522278 0.000001 -0.000002 -0.000001 0.374614 7.647717 -83.847040 2.941954 5.078799 -60.142568 0.000002 0.000004 0.000002 -3.122366 8.407770 -81.338899 6.209377 5.840124 -93.517092 0.000001 -0.000003 0.000004 0.000002 -0.000002 0.000002 0.250412 -6.988275 11.672792 -25.083293 6.274631 55.058766 0.000048 114.221957 -0.000044 -67.297055 9.613026 28.187380 2.225118 -18.937403 -12.390628 2.775309 -6.749207 -0.645855 -0.000002 0.000000 -0.000000 4.860546 -0.985243 81.914800 4.024095 -4.614018 82.179142 0.000002 0.000004 -0.000001 1.826113 -6.267505 72.978693 2.650910 -4.203729 64.457766 0.000003 -0.000002 -0.000001 -0.841730 -5.998485 79.557333 2.208666 -3.962791 58.253078 -0.000001 -0.000002 -0.000002 -12.144813 -6.101590 75.947892 4.684015 -4.657096 90.330611 0.000000 0.000004 -0.000001 0.000001 0.000003 -0.000001 -0.000002 0.000000 0.000000 -0.000001 0.000000 0.000001 -0.000002 0.000000 0.000000 -0.000002 0.000000 0.000000 -0.000002 0.000000 0.000000 -0.000001 0.000000 0.000000 -0.000002 0.000000 0.000000 -0.000002 0.000000 0.000000 -0.000002 0.000000 0.000000 -0.000001 0.000000 0.000000 0.000000 -0.000001 0.000000 0.000000 -0.000001 0.000000 0.000000 -0.000001 0.000000 
